<?xml version="1.0" encoding="utf-8"?>
<!-- Generator: Adobe Illustrator 24.2.0, SVG Export Plug-In . SVG Version: 6.00 Build 0)  -->
<svg version="1.1"
	 id="Layer_1" xmlns:cc="http://web.resource.org/cc/" xmlns:dc="http://purl.org/dc/elements/1.1/" xmlns:inkscape="http://www.inkscape.org/namespaces/inkscape" xmlns:ns1="http://sozi.baierouge.fr" xmlns:rdf="http://www.w3.org/1999/02/22-rdf-syntax-ns#" xmlns:sodipodi="http://sodipodi.sourceforge.net/DTD/sodipodi-0.dtd" xmlns:svg="http://www.w3.org/2000/svg"
	 xmlns="http://www.w3.org/2000/svg" xmlns:xlink="http://www.w3.org/1999/xlink" x="0px" y="0px" viewBox="0 0 500 500"
	 style="enable-background:new 0 0 500 500;" xml:space="preserve">
<style type="text/css">
	.st0{fill:#0C85E6;stroke:#000000;stroke-miterlimit:10;}
</style>
<g>
	<path class="st0" d="M10.5,21c0,0,171.4-6.3,248.3,32.9c19,7.2,15.6,12.9,15.6,12.9s-5.1,52.8,30.9,64.2
		c36,11.4,57.8,7.2,107.5,41.3c-1.8-6.3-1.3-11.2-1.3-11.2s10.9,11.2,14.2,17.5c3.3,6.3,10.7,1.5,13.7,3.5c3.1,2,15,23.7,15,23.7
		v5.2c0,0,10.9,15.5,23.6,16.6c-6.3,5.7-14.7,12.9-14.7,12.9s-10.9-16.4-39-32.1c-4.4-5.2-4.9-15.5-4.9-15.5s1.3-4-30.9-16.9
		s-64.7-32.1-99.4-7.7c-34.8,24.4-52.2,120.7,70.2,129.9c15.4,2.5,39.2,9.6,55.6,25c42.4,33.3,86.5,117.6,77.5,164.5
		c-7.3-20.6-15-89.9-75.8-140.7c-19-20-28.6-23.5-59-30.7c-30.4-7.2-74.6-2-102.4-46.7c-27.9-44.7,0-103.5,15.7-112.5
		c3.8-3.5,13-12.3,13-12.3s-19-51.1-19-71.7C194.1,23,10.5,24.1,10.5,24.1l-6-0.9L10.5,21L10.5,21z"/>
	<path class="st0" d="M264,94.5c0,0-115.1,15.2-212.4,84.9c79.1-38.1,56.1-27.2,79.1-38.1c23.1-10.9,72.1-27.8,137.2-32
		C266.4,106.2,264,94.5,264,94.5L264,94.5z"/>
</g>
</svg>
